<?xml version="1.0" encoding="utf-8"?>
<!-- Generator: Adobe Illustrator 21.0.2, SVG Export Plug-In . SVG Version: 6.00 Build 0)  -->
<svg version="1.1" id="Layer_1" xmlns="http://www.w3.org/2000/svg" xmlns:xlink="http://www.w3.org/1999/xlink" x="0px" y="0px"
	 viewBox="0 0 640 480" style="enable-background:new 0 0 640 480;" xml:space="preserve">
<style type="text/css">
	.st0{fill:#063852;}
	.st1{fill:#F0810F;}
	.st2{fill:#011A27;}
	.st3{fill:#E6DF44;}
	.st4{opacity:0.47;}
	.st5{fill:none;stroke:#FFFFFF;stroke-width:3;stroke-miterlimit:10;}
	.st6{fill:none;stroke:#FDFEFF;stroke-width:3;stroke-miterlimit:10;}
</style>
<g>
	<rect x="2.5" y="-2" class="st0" width="636.5" height="516.3"/>
	<path class="st1" d="M360.9,370h-2.2h-4.3c-2.2,0-4.3,0-4.3,0s-2.2,0-2.2-2.2c0,0-2.2-2.2-4.3-6.4c-2.2-2.2-4.3-6.4-4.3-12.9
		l-82-219.1c-4.3-12.9-10.8-23.6-15.1-32.2c-6.5-8.6-12.9-15-19.4-21.5c-6.5-4.2-15.1-8.6-23.8-10.8c-12.9-2.2-28-2.2-45.3,0
		c-8.6,2.2-15.1,4.2-21.6,4.2l-6.6,4.5v57.9l15.1-4.2c4.3-2.2,8.6-2.2,15.1-4.2c8.6-2.2,17.3-2.2,21.6,0c2.2,0,4.3,2.2,6.5,4.2
		c2.2,2.2,4.3,4.2,6.5,8.6c2.2,4.2,4.3,10.8,6.5,17.2l6.5,21.5L95.5,426h71.3l66.9-161.1l2.2-4.2l41,111.7
		c4.3,8.6,6.5,17.2,10.8,23.6c4.3,6.4,8.6,12.9,12.9,17.2c4.3,4.2,10.8,8.6,17.3,10.8s12.9,4.2,21.6,4.2s17.3,0,25.9-2.2l8.6-2.2
		V368L360.9,370z"/>
	<path class="st2" d="M352.8,373.5h-2.2h-4.3c-2.2,0-4.3,0-4.3,0s-2.2,0-2.2-2.2c0,0-2.2-2.2-4.3-6.4c-2.2-2.2-4.3-6.4-4.3-12.9
		l-82-219.1c-4.3-12.9-10.8-23.6-15.1-32.2c-6.5-8.6-12.9-15-19.4-21.5c-6.5-4.2-15.1-8.6-23.8-10.8c-12.9-2.2-28-2.2-45.3,0
		c-8.6,2.2-15.1,4.2-21.6,4.2l-6.7,4.5v57.9l15.1-4.2c4.3-2.2,8.6-2.2,15.1-4.2c8.6-2.2,17.3-2.2,21.6,0c2.2,0,4.3,2.2,6.5,4.2
		c2.2,2.2,4.3,4.2,6.5,8.6c2.2,4.4,4.3,10.8,6.5,17.2l6.5,21.5L87.3,429.5h71.3l66.9-161.1l2.2-4.2l41,111.7
		c4.3,8.6,6.5,17.2,10.8,23.6c4.3,6.4,8.6,12.9,12.9,17.2c4.3,4.2,10.8,8.6,17.3,10.8c6.5,2.2,12.9,4.2,21.6,4.2s17.3,0,25.9-2.2
		l8.6-2.2v-55.9L352.8,373.5z"/>
	<g>
		<ellipse class="st3" cx="573.9" cy="98.6" rx="26.1" ry="25.9"/>
		<ellipse class="st3" cx="573.9" cy="163" rx="26.1" ry="25.9"/>
		<ellipse class="st3" cx="573.9" cy="227.4" rx="26.1" ry="25.9"/>
	</g>
	<g>
		<ellipse class="st2" cx="570.3" cy="95.2" rx="26.1" ry="25.9"/>
		<ellipse class="st2" cx="570.3" cy="159.6" rx="26.1" ry="25.9"/>
		<ellipse class="st2" cx="570.3" cy="223.9" rx="26.1" ry="25.9"/>
	</g>
	<g class="st4">
		<line class="st5" x1="-1" y1="242.9" x2="69.4" y2="172.8"/>
		<line class="st5" x1="-1" y1="256.6" x2="69.4" y2="186.5"/>
		<line class="st5" x1="-1" y1="269.4" x2="69.4" y2="199.3"/>
		<line class="st5" x1="-1" y1="282" x2="69.4" y2="211.9"/>
		<line class="st5" x1="-1" y1="295.9" x2="69.4" y2="225.7"/>
		<line class="st5" x1="-1" y1="308.4" x2="69.4" y2="238.3"/>
	</g>
	<g class="st4">
		<line class="st5" x1="78.8" y1="162.4" x2="149.2" y2="92.3"/>
		<line class="st5" x1="78.8" y1="176.2" x2="149.2" y2="106.1"/>
		<line class="st5" x1="78.8" y1="188.9" x2="149.2" y2="118.7"/>
		<line class="st5" x1="78.8" y1="201.5" x2="149.2" y2="131.3"/>
		<line class="st5" x1="78.8" y1="215.3" x2="149.2" y2="145.2"/>
		<line class="st5" x1="78.8" y1="228" x2="149.2" y2="157.8"/>
	</g>
	<g class="st4">
		<line class="st5" x1="156" y1="87.6" x2="226.6" y2="17.5"/>
		<line class="st5" x1="156" y1="101.5" x2="226.6" y2="31.4"/>
		<line class="st5" x1="156" y1="114.1" x2="226.6" y2="44"/>
		<line class="st5" x1="156" y1="126.8" x2="226.6" y2="56.6"/>
		<line class="st5" x1="156" y1="140.6" x2="226.6" y2="70.5"/>
		<line class="st5" x1="156" y1="153.3" x2="226.6" y2="83"/>
	</g>
	<g class="st4">
		<line class="st5" x1="2.5" y1="331.5" x2="72.9" y2="261.2"/>
		<line class="st5" x1="2.5" y1="345.2" x2="72.9" y2="275.1"/>
		<line class="st5" x1="2.5" y1="358" x2="72.9" y2="287.9"/>
		<line class="st5" x1="2.5" y1="370.6" x2="72.9" y2="300.4"/>
		<line class="st5" x1="2.5" y1="384.4" x2="72.9" y2="314.3"/>
		<line class="st5" x1="2.5" y1="397" x2="72.9" y2="326.9"/>
	</g>
	<g class="st4">
		<line class="st5" x1="79.9" y1="248.6" x2="150.4" y2="178.5"/>
		<line class="st5" x1="79.9" y1="262.5" x2="150.4" y2="192.4"/>
		<line class="st5" x1="79.9" y1="275.1" x2="150.4" y2="205"/>
		<line class="st5" x1="79.9" y1="287.9" x2="150.4" y2="217.6"/>
		<line class="st5" x1="79.9" y1="301.5" x2="150.4" y2="231.4"/>
		<line class="st5" x1="79.9" y1="314.3" x2="150.4" y2="244.1"/>
	</g>
	<line class="st6" x1="405.6" y1="370.6" x2="473.8" y2="370.6"/>
	<line class="st6" x1="406.8" y1="352.8" x2="450.4" y2="309.3"/>
	<line class="st6" x1="447.8" y1="425.1" x2="410" y2="387.6"/>
</g>
</svg>
